<?xml version="1.0" encoding="utf-8"?>
<svg xmlns="http://www.w3.org/2000/svg" viewBox="0 0 500 500" xmlns:bx="https://boxy-svg.com" width="500px" height="500px"><defs><bx:export><bx:file format="svg" path="Sans titre.svg" excluded="true"/><bx:file format="svg" path="Sans titre 2.svg" excluded="true"/><bx:file format="svg" path="Sans titre 3.svg" excluded="true"/><bx:file format="svg" path="Sans titre 4.svg"/></bx:export></defs><path style="transform-box: fill-box; transform-origin: 50% 50%; fill: rgb(255, 255, 255); stroke: rgb(255, 255, 255);" transform="matrix(0, -0.833333, 0.815972, 0, -103.833337, -110.41668)" d="M 297 325.5 A 72 72 0 1 1 297 469.5 A 72 72 0 0 0 297 325.5 Z" bx:shape="crescent 297 397.5 72 180 1 1@53c5ff90"/><g><g><ellipse style="fill: rgb(216, 216, 216); stroke: rgb(251, 251, 251);" cx="170.437" cy="319.643" rx="2.889" ry="2.568"/><path d="M 170.34 322.508 L 174.293 331.446 L 166.387 331.446 L 170.34 322.508 Z" bx:shape="triangle 166.387 322.508 7.906 8.938 0.5 0 1@466b4639" style="fill: rgb(216, 216, 216); stroke: rgb(251, 251, 251);"/></g><line style="fill: rgb(216, 216, 216); stroke: rgb(251, 251, 251);" x1="162.606" y1="331.79" x2="178.075" y2="331.79"/><line style="fill: rgb(216, 216, 216); stroke: rgb(251, 251, 251);" x1="165.318" y1="331.634" x2="163.21" y2="334.852"/><line style="fill: rgb(216, 216, 216); stroke: rgb(251, 251, 251);" x1="167.871" y1="331.634" x2="165.207" y2="335.296"/><line style="fill: rgb(216, 216, 216); stroke: rgb(251, 251, 251);" x1="170.312" y1="331.412" x2="168.093" y2="334.963"/><line style="fill: rgb(216, 216, 216); stroke: rgb(251, 251, 251);" x1="172.754" y1="331.301" x2="170.312" y2="335.296"/><line style="fill: rgb(216, 216, 216); stroke: rgb(251, 251, 251);" x1="177.526" y1="332.078" x2="175.195" y2="335.962"/></g><line style="fill: rgb(216, 216, 216); stroke: rgb(255, 255, 255);" x1="175.417" y1="331.856" x2="172.865" y2="335.851"/><g transform="matrix(1, 0, 0, 1, 96.738113, -1.89631)"><g transform="matrix(1, 0, 0, 1, 20.863512, 0.332928)"><g><ellipse style="fill: rgb(216, 216, 216); stroke: rgb(255, 255, 255);" cx="170.437" cy="319.643" rx="2.889" ry="2.568"/><path d="M 170.34 322.508 L 174.293 331.446 L 166.387 331.446 L 170.34 322.508 Z" bx:shape="triangle 166.387 322.508 7.906 8.938 0.5 0 1@466b4639" style="fill: rgb(216, 216, 216); stroke: rgb(255, 255, 255);"/></g><line style="fill: rgb(216, 216, 216); stroke: rgb(255, 255, 255);" x1="162.606" y1="331.79" x2="178.075" y2="331.79"/><line style="fill: rgb(216, 216, 216); stroke: rgb(255, 255, 255);" x1="165.318" y1="331.634" x2="163.21" y2="334.852"/><line style="fill: rgb(216, 216, 216); stroke: rgb(255, 255, 255);" x1="167.871" y1="331.634" x2="165.207" y2="335.296"/><line style="fill: rgb(216, 216, 216); stroke: rgb(255, 255, 255);" x1="170.312" y1="331.412" x2="168.093" y2="334.963"/><line style="fill: rgb(216, 216, 216); stroke: rgb(255, 255, 255);" x1="172.754" y1="331.301" x2="170.312" y2="335.296"/><line style="fill: rgb(216, 216, 216); stroke: rgb(255, 255, 255);" x1="177.526" y1="332.078" x2="175.195" y2="335.962"/></g><line style="fill: rgb(216, 216, 216); stroke: rgb(255, 255, 255);" x1="196.193" y1="332.162" x2="193.641" y2="336.157"/></g></svg>